<?xml version="1.0" encoding="UTF-8" standalone="no"?>
<!-- Created with Inkscape (http://www.inkscape.org/) -->

<svg
   width="210mm"
   height="297mm"
   viewBox="0 0 210 297"
   version="1.1"
   id="svg5"
   xml:space="preserve"
   inkscape:version="1.2.2 (732a01da63, 2022-12-09, custom)"
   sodipodi:docname="favicon.svg"
   inkscape:export-filename="../9741e5fb/favicon.png"
   inkscape:export-xdpi="40.59417"
   inkscape:export-ydpi="40.59417"
   xmlns:inkscape="http://www.inkscape.org/namespaces/inkscape"
   xmlns:sodipodi="http://sodipodi.sourceforge.net/DTD/sodipodi-0.dtd"
   xmlns="http://www.w3.org/2000/svg"
   xmlns:svg="http://www.w3.org/2000/svg"><sodipodi:namedview
     id="namedview7"
     pagecolor="#ffffff"
     bordercolor="#000000"
     borderopacity="0.25"
     inkscape:showpageshadow="2"
     inkscape:pageopacity="0.0"
     inkscape:pagecheckerboard="0"
     inkscape:deskcolor="#d1d1d1"
     inkscape:document-units="mm"
     showgrid="false"
     inkscape:zoom="1.2938725"
     inkscape:cx="290.6005"
     inkscape:cy="367.115"
     inkscape:window-width="3840"
     inkscape:window-height="2091"
     inkscape:window-x="0"
     inkscape:window-y="0"
     inkscape:window-maximized="1"
     inkscape:current-layer="layer1" /><defs
     id="defs2" /><g
     inkscape:label="Layer 1"
     inkscape:groupmode="layer"
     id="layer1"><rect
       style="fill:none;fill-opacity:1;stroke:none;stroke-width:2.78704;stroke-dasharray:none"
       id="rect2387"
       width="60.067738"
       height="60.067738"
       x="59.661549"
       y="148.07988" /><path
       id="path1289"
       style="fill:#e9c6af;stroke:#000000;stroke-width:1.34961"
       d="m 109.42249,180.21149 c 0,14.87013 -8.93941,25.45234 -19.676354,25.45234 -10.736938,0 -19.205541,-10.58221 -19.205541,-25.45234 0,-14.87012 1.39602,-26.92474 19.440949,-26.92474 17.538326,-1e-5 19.440946,12.05462 19.440946,26.92474 z"
       sodipodi:nodetypes="sssss" /><path
       style="fill:#000000;stroke:#000000;stroke-width:3.18376;stroke-dasharray:none"
       d="m 72.372831,157.85751 c -0.760426,2.53315 -2.762728,4.67426 -2.812372,7.40868 -0.307757,1.78909 -1.625672,3.21923 -2.611172,4.71999 -0.720531,0.71794 -2.800761,1.44112 -0.714389,1.23758 2.62012,-0.012 5.021294,-1.14293 7.452667,-1.91809 -0.865589,-0.007 -3.168255,0.87942 -0.965422,0.37281 1.846652,-0.41924 3.73036,-0.69421 5.572056,-1.09764 1.85557,-0.55372 3.453262,-1.62432 5.172623,-2.45763 1.893925,-0.82885 2.655694,-2.38125 3.224643,-4.19186 0.142409,-0.0928 -0.723224,2.16151 -0.923908,2.94917 -0.933085,1.55236 -1.275262,3.40934 -2.555207,4.79403 -0.333387,1.59762 2.734733,0.35094 3.757796,0.12805 5.566245,-1.8493 11.166154,-3.91113 16.015864,-7.12433 1.13436,-0.76723 1.87728,-2.65736 2.57166,-3.2359 -0.87562,2.31773 -1.27082,5.02924 -3.46656,6.65259 -1.20044,1.04405 -2.674824,1.86602 -3.536869,3.20999 0.0037,0.21833 -0.920605,1.30026 0.26953,0.37458 0.02064,1.25504 3.283929,0.17926 4.513169,-0.052 1.50494,-0.92853 2.5956,-2.47847 4.45848,-2.74821 1.0816,-1.41896 2.16443,-1.19267 2.68463,-3.24563 0.50905,-2.56999 0.17827,-5.76615 -1.21594,-6.78322 -1.32975,-0.97005 -2.53904,-2.03657 -3.46404,-2.53302 -1.02968,-0.55264 -2.05879,-1.68856 -3.24297,-1.84635 -1.42229,-0.18951 -7.167387,-1.85905 -10.925426,-1.61468 -3.241345,-0.0183 -5.413733,1.06273 -8.553953,1.75575 -1.700076,-0.21124 -3.294026,0.6574 -4.780552,1.16661 -1.957989,0.50169 -3.193643,1.92312 -4.504276,3.22701 -0.340989,0.73141 -1.298467,0.76127 -1.657007,1.44108"
       id="path1177"
       sodipodi:nodetypes="cssssssccsscssssscsssssccsss" /><path
       id="rect177-6"
       style="fill:#80e5ff;stroke:none;stroke-width:3;stroke-dasharray:none"
       d="m 73.610108,191.47467 h 12.805413 l 3.87897,-5.32912 3.68433,5.32912 h 12.133159 c 3.8209,0 6.89695,-3.45041 6.89695,-7.73637 v -0.85107 c 0,-6.34866 -1.58551,-7.73638 -6.89695,-7.73638 H 73.610108 c -4.923241,0 -6.896962,1.68614 -6.896962,7.73638 v 0.85107 c 0,4.28596 3.076046,7.73637 6.896962,7.73637 z"
       sodipodi:nodetypes="scccssssssss" /><rect
       style="fill:#f2f2f2;stroke:none;stroke-width:1.82726;stroke-dasharray:none"
       id="rect1722"
       width="1.7335927"
       height="20.610804"
       x="180.50642"
       y="-85.541962"
       transform="matrix(0.70710678,0.70710678,0.70710678,-0.70710678,0,0)" /><rect
       style="fill:#f2f2f2;stroke:none;stroke-width:1.82726;stroke-dasharray:none"
       id="rect1722-5"
       width="1.7335927"
       height="20.610804"
       x="202.92442"
       y="-66.774536"
       transform="matrix(0.70710678,0.70710678,0.70710678,-0.70710678,0,0)" /><rect
       style="fill:#f2f2f2;stroke:none;stroke-width:1.40516;stroke-dasharray:none"
       id="rect1722-7"
       width="1.0251684"
       height="20.610804"
       x="183.49617"
       y="-83.733383"
       transform="matrix(0.70710678,0.70710678,0.70710678,-0.70710678,0,0)" /><rect
       style="fill:#f2f2f2;stroke:none;stroke-width:1.40516;stroke-dasharray:none"
       id="rect1722-7-3"
       width="1.0251684"
       height="20.610804"
       x="200.58855"
       y="-68.956329"
       transform="matrix(0.70710678,0.70710678,0.70710678,-0.70710678,0,0)" /><path
       id="rect177"
       style="fill:none;stroke:#000000;stroke-width:3;stroke-dasharray:none"
       d="m 73.610113,191.47467 h 12.805411 l 3.878974,-5.32912 3.684328,5.32912 h 12.133154 c 3.8209,0 6.89695,-3.45041 6.89695,-7.73637 v -0.85107 c 0,-6.34866 -1.58551,-7.73638 -6.89695,-7.73638 H 73.610113 c -4.923241,0 -6.896962,1.68614 -6.896962,7.73638 v 0.85107 c 0,4.28596 3.076046,7.73637 6.896962,7.73637 z"
       sodipodi:nodetypes="scccssssssss" /><rect
       style="fill:#000000;stroke:#000000;stroke-width:1.5852;stroke-dasharray:none"
       id="rect1073"
       width="3.6513078"
       height="6.8102298"
       x="62.238426"
       y="179.30862"
       rx="0.065079018"
       ry="3.4051149" /><rect
       style="fill:#000000;stroke:#000000;stroke-width:1.5852;stroke-dasharray:none"
       id="rect1073-3"
       width="3.6513078"
       height="6.8102298"
       x="113.59531"
       y="179.257"
       rx="0.065079018"
       ry="3.4051149" /><path
       style="fill:#000000;fill-opacity:0;stroke:#000000;stroke-width:1.77412"
       d="m 96.183697,197.3741 c 1e-6,2.20388 -2.675281,3.99048 -5.975409,3.99048 -3.300128,0 -5.975411,-1.7866 -5.97541,-3.99048"
       id="path1971"
       sodipodi:nodetypes="csc" /></g></svg>
