<?xml version="1.0" encoding="UTF-8" standalone="no"?>
<!-- Created with Inkscape (http://www.inkscape.org/) -->

<svg
   width="210mm"
   height="297mm"
   viewBox="0 0 210 297"
   version="1.1"
   id="svg5"
   xml:space="preserve"
   inkscape:version="1.3.2 (1:1.3.2+202311252150+091e20ef0f)"
   sodipodi:docname="favicon.svg"
   inkscape:export-filename="../../../../Downloads/aria.svg"
   inkscape:export-xdpi="40.59417"
   inkscape:export-ydpi="40.59417"
   xmlns:inkscape="http://www.inkscape.org/namespaces/inkscape"
   xmlns:sodipodi="http://sodipodi.sourceforge.net/DTD/sodipodi-0.dtd"
   xmlns="http://www.w3.org/2000/svg"
   xmlns:svg="http://www.w3.org/2000/svg"><sodipodi:namedview
     id="namedview7"
     pagecolor="#ffffff"
     bordercolor="#000000"
     borderopacity="0.25"
     inkscape:showpageshadow="2"
     inkscape:pageopacity="0.0"
     inkscape:pagecheckerboard="0"
     inkscape:deskcolor="#d1d1d1"
     inkscape:document-units="mm"
     showgrid="false"
     inkscape:zoom="0.91490602"
     inkscape:cx="361.23929"
     inkscape:cy="596.78261"
     inkscape:window-width="1996"
     inkscape:window-height="1230"
     inkscape:window-x="1039"
     inkscape:window-y="367"
     inkscape:window-maximized="0"
     inkscape:current-layer="layer1" /><defs
     id="defs2" /><g
     inkscape:label="Layer 1"
     inkscape:groupmode="layer"
     id="layer1"><rect
       style="fill:none;fill-opacity:1;stroke:none;stroke-width:2.78704;stroke-dasharray:none"
       id="rect2387-3"
       width="60.067738"
       height="60.067738"
       x="81.876335"
       y="-82.808395"
       transform="scale(1,-1)"
       inkscape:export-filename="../../../../Downloads/aria.svg"
       inkscape:export-xdpi="6.7656956"
       inkscape:export-ydpi="6.7656956" /><rect
       style="fill:none;fill-opacity:1;stroke:none;stroke-width:2.78704;stroke-dasharray:none"
       id="rect2387"
       width="60.067738"
       height="60.067738"
       x="8.1145535"
       y="228.32484" /><path
       id="path1289"
       style="fill:#e9c6af;stroke:#000000;stroke-width:1.34961"
       d="m 57.875493,260.45645 c 0,14.87013 -8.93941,25.45234 -19.67635,25.45234 -10.736938,0 -19.205541,-10.58221 -19.205541,-25.45234 0,-14.87012 1.39602,-26.92474 19.440951,-26.92474 17.53832,-1e-5 19.44094,12.05462 19.44094,26.92474 z"
       sodipodi:nodetypes="sssss" /><path
       style="fill:#000000;stroke:#000000;stroke-width:3.18376;stroke-dasharray:none"
       d="m 20.825838,238.10247 c -0.760426,2.53315 -2.762728,4.67426 -2.812372,7.40868 -0.307757,1.78909 -1.625672,3.21923 -2.611172,4.71999 -0.720531,0.71794 -2.800761,1.44112 -0.714389,1.23758 2.62012,-0.012 5.021294,-1.14293 7.452667,-1.91809 -0.865589,-0.007 -3.168255,0.87942 -0.965422,0.37281 1.846652,-0.41924 3.73036,-0.69421 5.572056,-1.09764 1.85557,-0.55372 3.453262,-1.62432 5.172623,-2.45763 1.893925,-0.82885 2.655694,-2.38125 3.224643,-4.19186 0.142409,-0.0928 -0.723224,2.16151 -0.923908,2.94917 -0.933085,1.55236 -1.275262,3.40934 -2.555207,4.79403 -0.333387,1.59762 2.734733,0.35094 3.757796,0.12805 5.56624,-1.8493 11.16615,-3.91113 16.01586,-7.12433 1.13436,-0.76723 1.87728,-2.65736 2.57166,-3.2359 -0.87562,2.31773 -1.27082,5.02924 -3.46656,6.65259 -1.20044,1.04405 -2.67482,1.86602 -3.53687,3.20999 0.004,0.21833 -0.9206,1.30026 0.26953,0.37458 0.0206,1.25504 3.28393,0.17926 4.51317,-0.052 1.50494,-0.92853 2.5956,-2.47847 4.45848,-2.74821 1.0816,-1.41896 2.16443,-1.19267 2.68463,-3.24563 0.50905,-2.56999 0.17827,-5.76615 -1.21594,-6.78322 -1.32975,-0.97005 -2.53904,-2.03657 -3.46404,-2.53302 -1.02968,-0.55264 -2.05879,-1.68856 -3.24297,-1.84635 -1.42229,-0.18951 -7.16738,-1.85905 -10.92542,-1.61468 -3.241347,-0.0183 -5.413735,1.06273 -8.553955,1.75575 -1.700076,-0.21124 -3.294026,0.6574 -4.780552,1.16661 -1.957989,0.50169 -3.193643,1.92312 -4.504276,3.22701 -0.340989,0.73141 -1.298467,0.76127 -1.657007,1.44108"
       id="path1177"
       sodipodi:nodetypes="cssssssccsscssssscsssssccsss" /><path
       id="rect177-6"
       style="fill:#80e5ff;stroke:none;stroke-width:3;stroke-dasharray:none"
       d="m 22.063115,271.71963 h 12.805413 l 3.878965,-5.32912 3.68433,5.32912 h 12.13316 c 3.8209,0 6.89695,-3.45041 6.89695,-7.73637 v -0.85107 c 0,-6.34866 -1.58551,-7.73638 -6.89695,-7.73638 H 22.063115 c -4.923241,0 -6.896962,1.68614 -6.896962,7.73638 v 0.85107 c 0,4.28596 3.076046,7.73637 6.896962,7.73637 z"
       sodipodi:nodetypes="scccssssssss" /><rect
       style="fill:#f2f2f2;stroke:none;stroke-width:1.82726;stroke-dasharray:none"
       id="rect1722"
       width="1.7335927"
       height="20.610804"
       x="200.79895"
       y="-178.73294"
       transform="matrix(0.70710678,0.70710678,0.70710678,-0.70710678,0,0)" /><rect
       style="fill:#f2f2f2;stroke:none;stroke-width:1.82726;stroke-dasharray:none"
       id="rect1722-5"
       width="1.7335927"
       height="20.610804"
       x="223.21695"
       y="-159.96552"
       transform="matrix(0.70710678,0.70710678,0.70710678,-0.70710678,0,0)" /><rect
       style="fill:#f2f2f2;stroke:none;stroke-width:1.40516;stroke-dasharray:none"
       id="rect1722-7"
       width="1.0251684"
       height="20.610804"
       x="203.7887"
       y="-176.92436"
       transform="matrix(0.70710678,0.70710678,0.70710678,-0.70710678,0,0)" /><rect
       style="fill:#f2f2f2;stroke:none;stroke-width:1.40516;stroke-dasharray:none"
       id="rect1722-7-3"
       width="1.0251684"
       height="20.610804"
       x="220.88107"
       y="-162.14731"
       transform="matrix(0.70710678,0.70710678,0.70710678,-0.70710678,0,0)" /><path
       id="rect177"
       style="fill:none;stroke:#000000;stroke-width:3;stroke-dasharray:none"
       d="m 22.06312,271.71963 h 12.805411 l 3.878972,-5.32912 3.68433,5.32912 h 12.13315 c 3.8209,0 6.89695,-3.45041 6.89695,-7.73637 v -0.85107 c 0,-6.34866 -1.58551,-7.73638 -6.89695,-7.73638 H 22.06312 c -4.923241,0 -6.896962,1.68614 -6.896962,7.73638 v 0.85107 c 0,4.28596 3.076046,7.73637 6.896962,7.73637 z"
       sodipodi:nodetypes="scccssssssss" /><rect
       style="fill:#000000;stroke:#000000;stroke-width:1.5852;stroke-dasharray:none"
       id="rect1073"
       width="3.6513078"
       height="6.8102298"
       x="10.691435"
       y="259.55359"
       rx="0.065079018"
       ry="3.4051149" /><rect
       style="fill:#000000;stroke:#000000;stroke-width:1.5852;stroke-dasharray:none"
       id="rect1073-3"
       width="3.6513078"
       height="6.8102298"
       x="62.048317"
       y="259.50195"
       rx="0.065079018"
       ry="3.4051149" /><path
       style="fill:#000000;fill-opacity:0;stroke:#000000;stroke-width:1.77412"
       d="m 44.636703,277.61906 c 0,2.20388 -2.67528,3.99048 -5.97541,3.99048 -3.300126,0 -5.975409,-1.7866 -5.975408,-3.99048"
       id="path1971"
       sodipodi:nodetypes="csc" /><path
       id="path1289-6"
       style="fill:#e9c6af;stroke:#000000;stroke-width:1.45356"
       d="m 132.68596,52.465068 c 0,16.247919 -9.4903,27.810621 -20.88891,27.810621 -11.39861,0 -20.389084,-11.562702 -20.389084,-27.810621 0,-16.247907 1.927317,-23.773833 21.084274,-23.773833 18.61911,-1.1e-5 20.19372,7.525926 20.19372,23.773833 z"
       sodipodi:nodetypes="sssss" /><path
       style="fill:#000000;stroke:#000000;stroke-width:2.99246;stroke-dasharray:none"
       d="m 93.204344,31.324776 c -0.814524,2.089274 -2.959253,3.855206 -3.012434,6.110484 -0.329642,1.475594 -1.741311,2.655135 -2.796912,3.892923 -0.771784,0.592138 -2.999989,1.188597 -0.765209,1.020723 2.806499,-0.0098 5.378484,-0.94266 7.982806,-1.58199 -0.927163,-0.0057 -3.39363,0.725322 -1.034093,0.307483 1.978008,-0.345778 3.995714,-0.572565 5.968409,-0.905304 1.987559,-0.456693 3.698909,-1.339696 5.540579,-2.026989 2.02864,-0.683613 2.8446,-1.963991 3.45402,-3.457334 0.15254,-0.07655 -0.77468,1.782756 -0.98963,2.432398 -0.99945,1.280344 -1.36598,2.811933 -2.73697,3.953987 -0.3571,1.317676 2.92927,0.289447 4.0251,0.105617 5.9622,-1.525254 11.96043,-3.225796 17.15513,-5.875959 1.21505,-0.632792 2.01081,-2.19172 2.75458,-2.668886 -0.93789,1.911603 -1.36121,4.147984 -3.71314,5.486882 -1.28582,0.861105 -2.86509,1.539045 -3.78844,2.647514 0.004,0.180075 -0.98611,1.072421 0.2887,0.308945 0.0221,1.035124 3.51751,0.147849 4.8342,-0.04288 1.61198,-0.765829 2.78023,-2.044178 4.77561,-2.266652 1.15854,-1.170321 2.3184,-0.983683 2.87561,-2.676909 0.54526,-2.119662 0.19094,-4.75577 -1.30244,-5.594623 -1.42434,-0.800071 -2.71965,-1.679708 -3.71046,-2.089166 -1.1029,-0.455803 -2.20524,-1.39268 -3.47364,-1.522822 -1.52347,-0.156302 -7.67722,-1.533296 -11.70258,-1.331745 -3.47193,-0.01508 -5.79883,0.876511 -9.16243,1.448095 -1.82101,-0.174225 -3.52835,0.542207 -5.120618,0.96219 -2.097269,0.41378 -3.420815,1.58614 -4.824675,2.661553 -0.365245,0.603248 -1.390835,0.627876 -1.774879,1.188565"
       id="path1177-7"
       sodipodi:nodetypes="cssssssccsscssssscsssssccsss" /><path
       id="rect177-6-5"
       style="fill:#80e5ff;stroke:none;stroke-width:3.35492;stroke-dasharray:none"
       d="m 94.703722,64.700457 h 13.565318 l 4.10916,-6.291312 3.90298,6.291312 h 12.85317 c 4.04763,0 7.30623,-4.073394 7.30623,-9.133199 v -1.004734 c 0,-7.494932 -1.67959,-9.133209 -7.30623,-9.133209 H 94.703722 c -5.215399,0 -7.306245,1.990578 -7.306245,9.133209 v 1.004734 c 0,5.059805 3.258591,9.133199 7.306245,9.133199 z"
       sodipodi:nodetypes="scccssssssss" /><rect
       style="fill:#f2f2f2;stroke:none;stroke-width:1.96842;stroke-dasharray:none"
       id="rect1722-3"
       width="1.8675156"
       height="22.203022"
       x="105.60699"
       y="20.400766"
       transform="matrix(0.69684951,0.71721737,0.69684951,-0.71721737,0,0)" /><rect
       style="fill:#f2f2f2;stroke:none;stroke-width:1.96842;stroke-dasharray:none"
       id="rect1722-5-5"
       width="1.8675156"
       height="22.203022"
       x="129.75681"
       y="40.618008"
       transform="matrix(0.69684951,0.71721737,0.69684951,-0.71721737,0,0)" /><rect
       style="fill:#f2f2f2;stroke:none;stroke-width:1.57601;stroke-dasharray:none"
       id="rect1722-7-6"
       width="1.1498153"
       height="23.116804"
       x="109.93835"
       y="26.997328"
       transform="matrix(0.66786498,0.74428245,0.66786498,-0.74428245,0,0)" /><rect
       style="fill:#f2f2f2;stroke:none;stroke-width:1.57601;stroke-dasharray:none"
       id="rect1722-7-3-2"
       width="1.1498153"
       height="23.116804"
       x="129.10893"
       y="43.571075"
       transform="matrix(0.66786498,0.74428245,0.66786498,-0.74428245,0,0)" /><path
       id="rect177-9"
       style="fill:none;stroke:#000000;stroke-width:3.35492;stroke-dasharray:none"
       d="m 94.703733,64.700457 h 13.565317 l 4.10916,-6.291312 3.90297,6.291312 h 12.85317 c 4.04763,0 7.30623,-4.073394 7.30623,-9.133199 v -1.004734 c 0,-7.494932 -1.67959,-9.133209 -7.30623,-9.133209 H 94.703733 c -5.215399,0 -7.306246,1.990578 -7.306246,9.133209 v 1.004734 c 0,5.059805 3.258581,9.133199 7.306246,9.133199 z"
       sodipodi:nodetypes="scccssssssss" /><rect
       style="fill:#000000;stroke:#000000;stroke-width:1.57455;stroke-dasharray:none"
       id="rect1073-1"
       width="3.2383428"
       height="7.5759068"
       x="83.297585"
       y="50.352871"
       rx="0.057718541"
       ry="3.7879534" /><rect
       style="fill:#000000;stroke:#000000;stroke-width:1.59635;stroke-dasharray:none"
       id="rect1073-3-2"
       width="3.3383734"
       height="7.553792"
       x="137.06123"
       y="50.307529"
       rx="0.059501439"
       ry="3.776896" /><path
       style="fill:#000000;fill-opacity:0;stroke:#000000;stroke-width:1.91078"
       d="m 118.63133,71.217876 c 0,2.40808 -2.84015,4.360217 -6.34365,4.360217 -3.5035,0 -6.34365,-1.952137 -6.34365,-4.360217"
       id="path1971-7"
       sodipodi:nodetypes="csc" /><rect
       style="fill:none;fill-opacity:1;stroke:none;stroke-width:2.78704;stroke-dasharray:none"
       id="rect2387-3-3"
       width="60.067738"
       height="60.067738"
       x="80.247581"
       y="-165.638"
       transform="scale(1,-1)"
       inkscape:export-filename="../b4f18232/favicon@0.167x.png"
       inkscape:export-xdpi="6.7656956"
       inkscape:export-ydpi="6.7656956" /><path
       id="path1289-6-5"
       style="fill:#e9c6af;stroke:#000000;stroke-width:1.42476"
       d="m 131.07161,134.33164 c 0,15.59959 -9.49692,26.70091 -20.90348,26.70091 -11.406567,0 -20.403309,-11.10132 -20.403309,-26.70091 0,-15.59957 1.928664,-22.8252 21.098979,-22.8252 18.6321,-1e-5 20.20781,7.22563 20.20781,22.8252 z"
       sodipodi:nodetypes="sssss"
       inkscape:export-filename="../60312f10/favicon@16x16.png"
       inkscape:export-xdpi="7.7560215"
       inkscape:export-ydpi="7.7560215" /><path
       style="fill:#000000;stroke:#000000;stroke-width:2.2549;stroke-dasharray:none"
       d="m 94.641982,114.87012 c -0.761034,1.26968 -2.764906,2.34286 -2.814593,3.71342 -0.30799,0.89674 -1.626946,1.61356 -2.613218,2.36579 -0.721092,0.35984 -2.802962,0.72232 -0.714955,0.6203 2.622179,-0.006 5.02525,-0.57287 7.458528,-0.9614 -0.866277,-0.004 -3.170749,0.44078 -0.966184,0.18687 1.848101,-0.21013 3.733296,-0.34796 5.57642,-0.55017 1.85703,-0.27754 3.45598,-0.81415 5.1767,-1.23183 1.8954,-0.41544 2.65778,-1.19354 3.22717,-2.10106 0.14253,-0.0465 -0.7238,1.0834 -0.92463,1.4782 -0.93381,0.77808 -1.27627,1.70884 -2.55721,2.40288 -0.33366,0.80077 2.73688,0.1759 3.76074,0.0642 5.57062,-0.92691 11.17491,-1.96035 16.02844,-3.5709 1.13524,-0.38455 1.87874,-1.33193 2.57367,-1.6219 -0.8763,1.1617 -1.27181,2.52077 -3.46927,3.33445 -1.20138,0.5233 -2.67692,0.93529 -3.53963,1.60892 0.004,0.10944 -0.92134,0.65173 0.26973,0.18776 0.0207,0.62905 3.28649,0.0898 4.51672,-0.0261 1.5061,-0.46541 2.59763,-1.24227 4.46195,-1.37747 1.08245,-0.71122 2.16614,-0.5978 2.68675,-1.62679 0.50945,-1.28815 0.1784,-2.89014 -1.2169,-3.39993 -1.33079,-0.48621 -2.54102,-1.02078 -3.46677,-1.26961 -1.03046,-0.277 -2.0604,-0.84635 -3.2455,-0.92544 -1.42341,-0.095 -7.173,-0.9318 -10.93399,-0.80932 -3.24391,-0.009 -5.41799,0.53267 -8.56068,0.88003 -1.70141,-0.10589 -3.29661,0.32951 -4.78431,0.58473 -1.959532,0.25145 -3.196146,0.96392 -4.507805,1.61747 -0.341262,0.3666 -1.299495,0.38156 -1.658313,0.7223"
       id="path1177-7-6"
       sodipodi:nodetypes="cssssssccsscssssscsssssccsss" /><path
       id="rect177-6-5-2"
       style="fill:#80e5ff;stroke:none;stroke-width:3.57839;stroke-dasharray:none"
       d="m 93.153413,147.41832 h 13.503507 l 4.09044,-7.19011 3.88519,7.19011 h 12.79461 c 4.02918,0 7.27293,-4.65533 7.27293,-10.438 v -1.14827 c 0,-8.56569 -1.67193,-10.43802 -7.27293,-10.43802 H 93.153413 c -5.191635,0 -7.272948,2.27496 -7.272948,10.43802 v 1.14827 c 0,5.78267 3.243742,10.438 7.272948,10.438 z"
       sodipodi:nodetypes="scccssssssss" /><path
       id="rect177-9-0"
       style="fill:none;stroke:#000000;stroke-width:3.57839;stroke-dasharray:none"
       d="m 93.153423,147.41832 h 13.503507 l 4.09044,-7.19011 3.88518,7.19011 h 12.79461 c 4.02918,0 7.27293,-4.65533 7.27293,-10.438 v -1.14827 c 0,-8.56569 -1.67193,-10.43802 -7.27293,-10.43802 H 93.153423 c -5.191625,0 -7.272948,2.27496 -7.272948,10.43802 v 1.14827 c 0,5.78267 3.243732,10.438 7.272948,10.438 z"
       sodipodi:nodetypes="scccssssssss" /><path
       style="fill:#000000;fill-opacity:0;stroke:#000000;stroke-width:1.91078"
       d="m 117.00258,153.10891 c 0,2.40808 -2.84015,4.36022 -6.34365,4.36022 -3.5035,0 -6.34365,-1.95214 -6.34365,-4.36022"
       id="path1971-7-6"
       sodipodi:nodetypes="csc" /><text
       xml:space="preserve"
       style="font-size:10.5833px;font-family:sans-serif;-inkscape-font-specification:'sans-serif, Normal';text-align:center;text-anchor:middle;fill:#c9c9c9;stroke-width:3"
       x="38.627441"
       y="34.687218"
       id="text420"><tspan
         sodipodi:role="line"
         id="tspan418"
         style="stroke-width:3"
         x="38.627441"
         y="34.687218">Normal</tspan></text><text
       xml:space="preserve"
       style="font-size:10.5833px;font-family:sans-serif;-inkscape-font-specification:'sans-serif, Normal';text-align:center;text-anchor:middle;fill:#c9c9c9;stroke-width:3"
       x="41.630745"
       y="112.87576"
       id="text420-7"><tspan
         sodipodi:role="line"
         id="tspan418-5"
         style="stroke-width:3"
         x="41.630745"
         y="112.87576">Tiny</tspan></text><text
       xml:space="preserve"
       style="font-size:10.5833px;font-family:sans-serif;-inkscape-font-specification:'sans-serif, Normal';text-align:center;text-anchor:middle;fill:#c9c9c9;stroke-width:3"
       x="32.517143"
       y="221.18556"
       id="text420-3"><tspan
         sodipodi:role="line"
         id="tspan418-6"
         style="stroke-width:3"
         x="32.517143"
         y="221.18556">Deprecated</tspan></text></g></svg>
