<?xml version="1.0" encoding="UTF-8" standalone="no"?>
<!-- Created with Inkscape (http://www.inkscape.org/) -->

<svg
   width="210mm"
   height="297mm"
   viewBox="0 0 210 297"
   version="1.1"
   id="svg5"
   xml:space="preserve"
   inkscape:version="1.2.2 (732a01da63, 2022-12-09, custom)"
   sodipodi:docname="favicon.svg"
   inkscape:export-filename="../9741e5fb/favicon.png"
   inkscape:export-xdpi="40.59417"
   inkscape:export-ydpi="40.59417"
   xmlns:inkscape="http://www.inkscape.org/namespaces/inkscape"
   xmlns:sodipodi="http://sodipodi.sourceforge.net/DTD/sodipodi-0.dtd"
   xmlns="http://www.w3.org/2000/svg"
   xmlns:svg="http://www.w3.org/2000/svg"><sodipodi:namedview
     id="namedview7"
     pagecolor="#ffffff"
     bordercolor="#000000"
     borderopacity="0.25"
     inkscape:showpageshadow="2"
     inkscape:pageopacity="0.0"
     inkscape:pagecheckerboard="0"
     inkscape:deskcolor="#d1d1d1"
     inkscape:document-units="mm"
     showgrid="false"
     inkscape:zoom="0.91490602"
     inkscape:cx="384.73897"
     inkscape:cy="595.14309"
     inkscape:window-width="1996"
     inkscape:window-height="1230"
     inkscape:window-x="1039"
     inkscape:window-y="367"
     inkscape:window-maximized="0"
     inkscape:current-layer="layer1" /><defs
     id="defs2" /><g
     inkscape:label="Layer 1"
     inkscape:groupmode="layer"
     id="layer1"><rect
       style="fill:none;fill-opacity:1;stroke:none;stroke-width:2.78704;stroke-dasharray:none"
       id="rect2387-3"
       width="60.067738"
       height="60.067738"
       x="70.920403"
       y="-104.91483"
       transform="scale(1,-1)"
       inkscape:export-filename="../3bc8f25c/favicon@0.5x.png"
       inkscape:export-xdpi="20.297087"
       inkscape:export-ydpi="20.297087" /><rect
       style="fill:none;fill-opacity:1;stroke:none;stroke-width:2.78704;stroke-dasharray:none"
       id="rect2387"
       width="60.067738"
       height="60.067738"
       x="71.047981"
       y="126.23946" /><path
       id="path1289"
       style="fill:#e9c6af;stroke:#000000;stroke-width:1.34961"
       d="m 120.80892,158.37107 c 0,14.87013 -8.93941,25.45234 -19.67635,25.45234 -10.736938,0 -19.205541,-10.58221 -19.205541,-25.45234 0,-14.87012 1.39602,-26.92474 19.440951,-26.92474 17.53832,-1e-5 19.44094,12.05462 19.44094,26.92474 z"
       sodipodi:nodetypes="sssss" /><path
       style="fill:#000000;stroke:#000000;stroke-width:3.18376;stroke-dasharray:none"
       d="m 83.759265,136.01709 c -0.760426,2.53315 -2.762728,4.67426 -2.812372,7.40868 -0.307757,1.78909 -1.625672,3.21923 -2.611172,4.71999 -0.720531,0.71794 -2.800761,1.44112 -0.714389,1.23758 2.62012,-0.012 5.021294,-1.14293 7.452667,-1.91809 -0.865589,-0.007 -3.168255,0.87942 -0.965422,0.37281 1.846652,-0.41924 3.73036,-0.69421 5.572056,-1.09764 1.85557,-0.55372 3.453262,-1.62432 5.172623,-2.45763 1.893925,-0.82885 2.655694,-2.38125 3.224643,-4.19186 0.142409,-0.0928 -0.723224,2.16151 -0.923908,2.94917 -0.933085,1.55236 -1.275262,3.40934 -2.555207,4.79403 -0.333387,1.59762 2.734733,0.35094 3.757796,0.12805 5.56624,-1.8493 11.16615,-3.91113 16.01586,-7.12433 1.13436,-0.76723 1.87728,-2.65736 2.57166,-3.2359 -0.87562,2.31773 -1.27082,5.02924 -3.46656,6.65259 -1.20044,1.04405 -2.67482,1.86602 -3.53687,3.20999 0.004,0.21833 -0.9206,1.30026 0.26953,0.37458 0.0206,1.25504 3.28393,0.17926 4.51317,-0.052 1.50494,-0.92853 2.5956,-2.47847 4.45848,-2.74821 1.0816,-1.41896 2.16443,-1.19267 2.68463,-3.24563 0.50905,-2.56999 0.17827,-5.76615 -1.21594,-6.78322 -1.32975,-0.97005 -2.53904,-2.03657 -3.46404,-2.53302 -1.02968,-0.55264 -2.05879,-1.68856 -3.24297,-1.84635 -1.42229,-0.18951 -7.16738,-1.85905 -10.92542,-1.61468 -3.241347,-0.0183 -5.413735,1.06273 -8.553955,1.75575 -1.700076,-0.21124 -3.294026,0.6574 -4.780552,1.16661 -1.957989,0.50169 -3.193643,1.92312 -4.504276,3.22701 -0.340989,0.73141 -1.298467,0.76127 -1.657007,1.44108"
       id="path1177"
       sodipodi:nodetypes="cssssssccsscssssscsssssccsss" /><path
       id="rect177-6"
       style="fill:#80e5ff;stroke:none;stroke-width:3;stroke-dasharray:none"
       d="m 84.996542,169.63425 h 12.805413 l 3.878965,-5.32912 3.68433,5.32912 h 12.13316 c 3.8209,0 6.89695,-3.45041 6.89695,-7.73637 v -0.85107 c 0,-6.34866 -1.58551,-7.73638 -6.89695,-7.73638 H 84.996542 c -4.923241,0 -6.896962,1.68614 -6.896962,7.73638 v 0.85107 c 0,4.28596 3.076046,7.73637 6.896962,7.73637 z"
       sodipodi:nodetypes="scccssssssss" /><rect
       style="fill:#f2f2f2;stroke:none;stroke-width:1.82726;stroke-dasharray:none"
       id="rect1722"
       width="1.7335927"
       height="20.610804"
       x="173.11433"
       y="-62.047024"
       transform="matrix(0.70710678,0.70710678,0.70710678,-0.70710678,0,0)" /><rect
       style="fill:#f2f2f2;stroke:none;stroke-width:1.82726;stroke-dasharray:none"
       id="rect1722-5"
       width="1.7335927"
       height="20.610804"
       x="195.53233"
       y="-43.279598"
       transform="matrix(0.70710678,0.70710678,0.70710678,-0.70710678,0,0)" /><rect
       style="fill:#f2f2f2;stroke:none;stroke-width:1.40516;stroke-dasharray:none"
       id="rect1722-7"
       width="1.0251684"
       height="20.610804"
       x="176.10408"
       y="-60.238445"
       transform="matrix(0.70710678,0.70710678,0.70710678,-0.70710678,0,0)" /><rect
       style="fill:#f2f2f2;stroke:none;stroke-width:1.40516;stroke-dasharray:none"
       id="rect1722-7-3"
       width="1.0251684"
       height="20.610804"
       x="193.19646"
       y="-45.461391"
       transform="matrix(0.70710678,0.70710678,0.70710678,-0.70710678,0,0)" /><path
       id="rect177"
       style="fill:none;stroke:#000000;stroke-width:3;stroke-dasharray:none"
       d="m 84.996547,169.63425 h 12.805411 l 3.878972,-5.32912 3.68433,5.32912 h 12.13315 c 3.8209,0 6.89695,-3.45041 6.89695,-7.73637 v -0.85107 c 0,-6.34866 -1.58551,-7.73638 -6.89695,-7.73638 H 84.996547 c -4.923241,0 -6.896962,1.68614 -6.896962,7.73638 v 0.85107 c 0,4.28596 3.076046,7.73637 6.896962,7.73637 z"
       sodipodi:nodetypes="scccssssssss" /><rect
       style="fill:#000000;stroke:#000000;stroke-width:1.5852;stroke-dasharray:none"
       id="rect1073"
       width="3.6513078"
       height="6.8102298"
       x="73.624863"
       y="157.4682"
       rx="0.065079018"
       ry="3.4051149" /><rect
       style="fill:#000000;stroke:#000000;stroke-width:1.5852;stroke-dasharray:none"
       id="rect1073-3"
       width="3.6513078"
       height="6.8102298"
       x="124.98174"
       y="157.41658"
       rx="0.065079018"
       ry="3.4051149" /><path
       style="fill:#000000;fill-opacity:0;stroke:#000000;stroke-width:1.77412"
       d="m 107.57013,175.53368 c 0,2.20388 -2.67528,3.99048 -5.97541,3.99048 -3.300126,0 -5.975409,-1.7866 -5.975408,-3.99048"
       id="path1971"
       sodipodi:nodetypes="csc" /><path
       id="path1289-6"
       style="fill:#e9c6af;stroke:#000000;stroke-width:1.45356"
       d="m 121.73003,74.571509 c 0,16.247919 -9.4903,27.810621 -20.88891,27.810621 -11.398605,0 -20.389083,-11.562702 -20.389083,-27.810621 0,-16.247907 1.927317,-23.773833 21.084273,-23.773833 18.61911,-1.1e-5 20.19372,7.525926 20.19372,23.773833 z"
       sodipodi:nodetypes="sssss" /><path
       style="fill:#000000;stroke:#000000;stroke-width:2.99246;stroke-dasharray:none"
       d="m 82.248415,53.431217 c -0.814524,2.089274 -2.959253,3.855206 -3.012434,6.110484 -0.329642,1.475594 -1.741311,2.655135 -2.796912,3.892923 -0.771784,0.592138 -2.999989,1.188597 -0.765209,1.020723 2.806499,-0.0098 5.378484,-0.94266 7.982806,-1.58199 -0.927163,-0.0057 -3.39363,0.725322 -1.034093,0.307483 1.978008,-0.345778 3.995714,-0.572565 5.968409,-0.905304 1.987563,-0.456693 3.698914,-1.339696 5.540578,-2.026989 2.02864,-0.683613 2.844599,-1.963991 3.454019,-3.457334 0.152541,-0.07655 -0.774674,1.782756 -0.989631,2.432398 -0.999451,1.280344 -1.365973,2.811933 -2.73697,3.953987 -0.357096,1.317676 2.929273,0.289447 4.025105,0.105617 5.962197,-1.525254 11.960427,-3.225796 17.155127,-5.875959 1.21505,-0.632792 2.01081,-2.19172 2.75458,-2.668886 -0.93789,1.911603 -1.36121,4.147984 -3.71314,5.486882 -1.28582,0.861105 -2.86509,1.539045 -3.78844,2.647514 0.004,0.180075 -0.98611,1.072421 0.2887,0.308945 0.0221,1.035124 3.51751,0.147849 4.8342,-0.04288 1.61198,-0.765829 2.78023,-2.044178 4.77561,-2.266652 1.15854,-1.170321 2.3184,-0.983683 2.87561,-2.676909 0.54526,-2.119662 0.19094,-4.75577 -1.30244,-5.594623 -1.42434,-0.800071 -2.71965,-1.679708 -3.71046,-2.089166 -1.1029,-0.455803 -2.20524,-1.39268 -3.47364,-1.522822 -1.52347,-0.156302 -7.67722,-1.533296 -11.70258,-1.331745 -3.471924,-0.01508 -5.798833,0.876511 -9.162428,1.448095 -1.821013,-0.174225 -3.528346,0.542207 -5.120619,0.96219 -2.097269,0.41378 -3.420815,1.58614 -4.824675,2.661553 -0.365245,0.603248 -1.390835,0.627876 -1.774879,1.188565"
       id="path1177-7"
       sodipodi:nodetypes="cssssssccsscssssscsssssccsss" /><path
       id="rect177-6-5"
       style="fill:#80e5ff;stroke:none;stroke-width:3.35492;stroke-dasharray:none"
       d="m 83.747793,86.806898 h 13.56532 l 4.109157,-6.291312 3.90298,6.291312 h 12.85317 c 4.04763,0 7.30623,-4.073394 7.30623,-9.133199 v -1.004734 c 0,-7.494932 -1.67959,-9.133209 -7.30623,-9.133209 H 83.747793 c -5.215399,0 -7.306245,1.990578 -7.306245,9.133209 v 1.004734 c 0,5.059805 3.258591,9.133199 7.306245,9.133199 z"
       sodipodi:nodetypes="scccssssssss" /><rect
       style="fill:#f2f2f2;stroke:none;stroke-width:1.96842;stroke-dasharray:none"
       id="rect1722-3"
       width="1.8675156"
       height="22.203022"
       x="113.1572"
       y="-2.8715324"
       transform="matrix(0.69684951,0.71721737,0.69684951,-0.71721737,0,0)" /><rect
       style="fill:#f2f2f2;stroke:none;stroke-width:1.96842;stroke-dasharray:none"
       id="rect1722-5-5"
       width="1.8675156"
       height="22.203022"
       x="137.30702"
       y="17.345709"
       transform="matrix(0.69684951,0.71721737,0.69684951,-0.71721737,0,0)" /><rect
       style="fill:#f2f2f2;stroke:none;stroke-width:1.57601;stroke-dasharray:none"
       id="rect1722-7-6"
       width="1.1498153"
       height="23.116804"
       x="116.58699"
       y="3.9442832"
       transform="matrix(0.66786498,0.74428245,0.66786498,-0.74428245,0,0)" /><rect
       style="fill:#f2f2f2;stroke:none;stroke-width:1.57601;stroke-dasharray:none"
       id="rect1722-7-3-2"
       width="1.1498153"
       height="23.116804"
       x="135.75757"
       y="20.518032"
       transform="matrix(0.66786498,0.74428245,0.66786498,-0.74428245,0,0)" /><path
       id="rect177-9"
       style="fill:none;stroke:#000000;stroke-width:3.35492;stroke-dasharray:none"
       d="m 83.747804,86.806898 h 13.56532 l 4.109156,-6.291312 3.90297,6.291312 h 12.85317 c 4.04763,0 7.30623,-4.073394 7.30623,-9.133199 v -1.004734 c 0,-7.494932 -1.67959,-9.133209 -7.30623,-9.133209 H 83.747804 c -5.215399,0 -7.306246,1.990578 -7.306246,9.133209 v 1.004734 c 0,5.059805 3.258581,9.133199 7.306246,9.133199 z"
       sodipodi:nodetypes="scccssssssss" /><rect
       style="fill:#000000;stroke:#000000;stroke-width:1.57455;stroke-dasharray:none"
       id="rect1073-1"
       width="3.2383428"
       height="7.5759068"
       x="72.341652"
       y="72.459312"
       rx="0.057718541"
       ry="3.7879534" /><rect
       style="fill:#000000;stroke:#000000;stroke-width:1.59635;stroke-dasharray:none"
       id="rect1073-3-2"
       width="3.3383734"
       height="7.553792"
       x="126.10531"
       y="72.413971"
       rx="0.059501439"
       ry="3.776896" /><path
       style="fill:#000000;fill-opacity:0;stroke:#000000;stroke-width:1.91078"
       d="m 107.6754,93.324317 c 0,2.40808 -2.84015,4.360217 -6.34365,4.360217 -3.503501,0 -6.343645,-1.952137 -6.343645,-4.360217"
       id="path1971-7"
       sodipodi:nodetypes="csc" /></g></svg>
